<svg viewBox="0 0 940 280" xmlns="http://www.w3.org/2000/svg">
  <rect x="5" y="5" width="930" height="270" rx="30" fill="#D3101E" />
  <rect x="20" y="20" width="900" height="240" rx="20" fill="#000000" />
  <rect x="26" y="26" width="888" height="228" rx="16" fill="#F38C15" />

  <defs>
    <path id="P_path" d="M 0 120 L 0 0 L 50 0 L 80 30 L 80 50 L 50 80 L 30 80 L 30 120 Z M 30 30 L 30 50 L 50 50 L 50 30 Z" fill-rule="evenodd" />
    <path id="A_path" d="M 0 120 L 35 0 L 55 0 L 90 120 Z" />
    <path id="C_path" d="M 112 30 A 60 60 0 1 0 112 90 L 60 60 Z" />
    <path id="Hyphen_path" d="M 0 45 L 40 45 L 40 75 L 0 75 Z" />
    <path id="M_path" d="M 0 120 L 0 0 L 50 50 L 100 0 L 100 120 L 70 120 L 70 60 L 50 80 L 30 60 L 30 120 Z" />
    <path id="N_path" d="M 0 120 L 0 0 L 25 0 L 60 90 L 60 0 L 85 0 L 85 120 L 60 120 L 25 30 L 25 120 Z" />

    <g id="letter_P">
      <use href="#P_path" x="12" y="12" fill="#32206B" stroke="#000000" stroke-width="4" stroke-linejoin="bevel"/>
      <use href="#P_path" x="-12" y="-12" fill="#FFFFFF" stroke="#000000" stroke-width="4" stroke-linejoin="bevel"/>
      <use href="#P_path" x="0" y="0" fill="#FBE118" stroke="#000000" stroke-width="4" stroke-linejoin="bevel"/>
      <circle cx="15" cy="40" r="4.5" fill="#000" />
      <path d="M 8 55 Q 15 65 22 55" fill="none" stroke="#000" stroke-width="4" stroke-linecap="round"/>
    </g>

    <g id="letter_A">
      <use href="#A_path" x="12" y="12" fill="#32206B" stroke="#000000" stroke-width="4" stroke-linejoin="bevel"/>
      <use href="#A_path" x="-12" y="-12" fill="#FFFFFF" stroke="#000000" stroke-width="4" stroke-linejoin="bevel"/>
      <use href="#A_path" x="0" y="0" fill="#FBE118" stroke="#000000" stroke-width="4" stroke-linejoin="bevel"/>
      <circle cx="45" cy="55" r="4.5" fill="#000" />
      <path d="M 35 68 Q 45 80 55 68" fill="none" stroke="#000" stroke-width="4" stroke-linecap="round"/>
    </g>

    <g id="letter_C">
      <use href="#C_path" x="12" y="12" fill="#32206B" stroke="#000000" stroke-width="4" stroke-linejoin="bevel"/>
      <use href="#C_path" x="-12" y="-12" fill="#FFFFFF" stroke="#000000" stroke-width="4" stroke-linejoin="bevel"/>
      <use href="#C_path" x="0" y="0" fill="#FBE118" stroke="#000000" stroke-width="4" stroke-linejoin="bevel"/>
      <path d="M 75 50 A 15 15 0 0 1 75 70" fill="none" stroke="#000" stroke-width="4" stroke-linecap="round" />
    </g>

    <g id="letter_Hyphen">
      <use href="#Hyphen_path" x="12" y="12" fill="#32206B" stroke="#000000" stroke-width="4" stroke-linejoin="bevel"/>
      <use href="#Hyphen_path" x="-12" y="-12" fill="#FFFFFF" stroke="#000000" stroke-width="4" stroke-linejoin="bevel"/>
      <use href="#Hyphen_path" x="0" y="0" fill="#FBE118" stroke="#000000" stroke-width="4" stroke-linejoin="bevel"/>
    </g>

    <g id="letter_M">
      <use href="#M_path" x="12" y="12" fill="#32206B" stroke="#000000" stroke-width="4" stroke-linejoin="bevel"/>
      <use href="#M_path" x="-12" y="-12" fill="#FFFFFF" stroke="#000000" stroke-width="4" stroke-linejoin="bevel"/>
      <use href="#M_path" x="0" y="0" fill="#FBE118" stroke="#000000" stroke-width="4" stroke-linejoin="bevel"/>
      <path d="M 92 105 L 92 112 L 85 112" fill="none" stroke="#000" stroke-width="4" stroke-linecap="square"/>
    </g>

    <g id="letter_N">
      <use href="#N_path" x="12" y="12" fill="#32206B" stroke="#000000" stroke-width="4" stroke-linejoin="bevel"/>
      <use href="#N_path" x="-12" y="-12" fill="#FFFFFF" stroke="#000000" stroke-width="4" stroke-linejoin="bevel"/>
      <use href="#N_path" x="0" y="0" fill="#FBE118" stroke="#000000" stroke-width="4" stroke-linejoin="bevel"/>
      <path d="M 77 105 L 77 112 L 70 112" fill="none" stroke="#000" stroke-width="4" stroke-linecap="square"/>
    </g>
  </defs>

  <use href="#letter_P" x="90" y="80" />
  <use href="#letter_A" x="205" y="80" />
  <use href="#letter_C" x="320" y="80" />
  <use href="#letter_Hyphen" x="457" y="80" />
  <use href="#letter_M" x="522" y="80" />
  <use href="#letter_A" x="647" y="80" />
  <use href="#letter_N" x="762" y="80" />

</svg>
